<?xml version="1.0" encoding="utf-8"?>
<!-- Generator: Adobe Illustrator 16.0.4, SVG Export Plug-In . SVG Version: 6.00 Build 0)  -->
<!DOCTYPE svg PUBLIC "-//W3C//DTD SVG 1.1//EN" "http://www.w3.org/Graphics/SVG/1.1/DTD/svg11.dtd">
<svg version="1.1" id="Layer_1" xmlns="http://www.w3.org/2000/svg" xmlns:xlink="http://www.w3.org/1999/xlink" x="0px" y="0px"
	 width="216px" height="216px" viewBox="0 0 216 216" enable-background="new 0 0 216 216" xml:space="preserve">
<g>
	<polygon fill="#4389C8" points="210.461,59.384 173.946,38.303 173.936,80.472 	"/>
	<polygon fill="#4389C8" points="42.084,156.598 42.063,80.472 21.267,68.465 5.539,59.384 5.539,177.66 42.053,156.58 	"/>
	<polygon fill="#1C75BC" points="42.053,156.58 5.539,177.66 5.539,177.697 42.084,156.598 	"/>
	<polygon fill="#1C75BC" points="173.936,80.472 173.917,156.598 173.946,156.58 210.461,177.66 210.461,59.384 	"/>
	<polygon fill="#1C75BC" points="173.917,156.598 210.461,177.697 210.461,177.66 173.946,156.58 	"/>
	<linearGradient id="SVGID_1_" gradientUnits="userSpaceOnUse" x1="192.1934" y1="97.769" x2="192.1934" y2="61.2528">
		<stop  offset="0.0112" style="stop-color:#262262;stop-opacity:0"/>
		<stop  offset="0.5" style="stop-color:#262262;stop-opacity:0.5"/>
		<stop  offset="0.9944" style="stop-color:#262262"/>
	</linearGradient>
	<path fill="url(#SVGID_1_)" d="M173.946,43.897v-0.004l-0.001,0.001l-0.011,42.168l0.001-0.001v-0.005
		c0.201-0.116,21.723-12.541,29.14-16.823c5.954-2.954,7.376,6.457,7.376,6.457V64.974L173.946,43.897z"/>
	
		<linearGradient id="SVGID_2_" gradientUnits="userSpaceOnUse" x1="333.8447" y1="98.1221" x2="333.8447" y2="61.6059" gradientTransform="matrix(-1 0 0 1 357.6562 0)">
		<stop  offset="0.0112" style="stop-color:#262262;stop-opacity:0"/>
		<stop  offset="0.5" style="stop-color:#262262;stop-opacity:0.5"/>
		<stop  offset="0.9944" style="stop-color:#262262"/>
	</linearGradient>
	<path fill="url(#SVGID_2_)" d="M42.058,44.251v-0.004l0.001,0.001l0.011,42.168l-0.001-0.001V86.41
		c-0.2-0.116-21.723-12.541-29.139-16.823c-5.955-2.954-7.377,6.457-7.377,6.457V65.327L42.058,44.251z"/>
	<path fill="#1C75BC" d="M107.999,76.378L42.052,38.303L5.539,59.384v10.716c0,0,1.422-9.41,7.377-6.457
		c7.451,4.302,29.147,16.828,29.147,16.828L108,118.539L107.999,76.378z"/>
	<path fill="#4389C8" d="M173.946,38.309v-0.005l-0.004,0.003l-0.004-0.003v0.005l-65.939,38.069L108,118.539l65.936-38.067v-0.005
		c0.201-0.115,21.723-12.541,29.14-16.823c5.954-2.953,7.376,6.457,7.376,6.457V59.384L173.946,38.309z"/>
</g>
</svg>
